<?xml version="1.0" encoding="UTF-8"?>
<svg width="24px" height="24px" viewBox="0 0 24 24" version="1.1" xmlns="http://www.w3.org/2000/svg" xmlns:xlink="http://www.w3.org/1999/xlink">
    <!-- Generator: Sketch 55 (78076) - https://sketchapp.com -->
    <title>Titles</title>
    <desc>Created with Sketch.</desc>
        <path d="M15.8184,13.0322 L15.8184,14.1152 C15.9924,13.9822 16.0854,13.7832 16.0854,13.5092 C16.0854,13.3422 16.0324,13.2062 15.9274,13.1012 C15.9004,13.0742 15.8504,13.0572 15.8184,13.0322 L15.8184,13.0322 Z M14.2184,10.3882 C14.2184,10.5322 14.2714,10.6522 14.3764,10.7462 C14.4784,10.8392 14.6144,10.9182 14.7794,10.9862 L14.7794,9.7162 C14.6624,9.7492 14.5594,9.7912 14.4804,9.8512 C14.3054,9.9842 14.2184,10.1622 14.2184,10.3882 L14.2184,10.3882 Z M8.8854,9.6042 L8.1994,9.6042 L8.1994,11.7812 L8.8854,11.7812 C9.1174,11.7812 9.3144,11.7512 9.4774,11.6922 C9.6404,11.6342 9.7744,11.5522 9.8784,11.4482 C9.9824,11.3442 10.0574,11.2222 10.1044,11.0832 C10.1514,10.9432 10.1754,10.7932 10.1754,10.6322 C10.1754,10.3092 10.0704,10.0572 9.8604,9.8762 C9.6504,9.6942 9.3254,9.6042 8.8854,9.6042 L8.8854,9.6042 Z M17.6754,14.2102 C17.5444,14.4982 17.3544,14.7492 17.1054,14.9632 C16.8564,15.1772 16.5484,15.3452 16.1834,15.4682 C16.0694,15.5072 15.9424,15.5282 15.8184,15.5542 L15.8184,16.5222 C15.8184,16.8092 15.5854,17.0422 15.2984,17.0422 C15.0114,17.0422 14.7794,16.8092 14.7794,16.5222 L14.7794,15.6382 C14.5744,15.6312 14.3694,15.6202 14.1594,15.5832 C13.8954,15.5382 13.6394,15.4732 13.3924,15.3892 C13.1454,15.3062 12.9124,15.2072 12.6954,15.0932 C12.4784,14.9782 12.2884,14.8512 12.1274,14.7102 L12.6894,13.9352 C12.7314,13.8762 12.7894,13.8292 12.8634,13.7932 C12.9394,13.7572 13.0194,13.7392 13.1054,13.7392 C13.2174,13.7392 13.3314,13.7702 13.4454,13.8322 C13.5604,13.8942 13.6894,13.9632 13.8334,14.0382 C13.9774,14.1142 14.1434,14.1822 14.3314,14.2442 C14.4574,14.2862 14.6214,14.2942 14.7794,14.3072 L14.7794,12.6202 C14.6094,12.5772 14.4404,12.5342 14.2634,12.4862 C14.0354,12.4222 13.8124,12.3432 13.5944,12.2502 C13.3774,12.1572 13.1834,12.0342 13.0124,11.8822 C12.8424,11.7302 12.7044,11.5402 12.5994,11.3132 C12.4944,11.0862 12.4424,10.8052 12.4424,10.4712 C12.4424,10.2032 12.5044,9.9422 12.6284,9.6872 C12.7514,9.4312 12.9334,9.2042 13.1724,9.0052 C13.4134,8.8052 13.7074,8.6462 14.0554,8.5272 C14.2744,8.4512 14.5204,8.4092 14.7794,8.3812 L14.7794,7.4782 C14.7794,7.1912 15.0114,6.9582 15.2984,6.9582 C15.5854,6.9582 15.8184,7.1912 15.8184,7.4782 L15.8184,8.3872 C15.8734,8.3932 15.9314,8.3912 15.9864,8.3992 C16.2244,8.4332 16.4504,8.4842 16.6644,8.5512 C16.8774,8.6182 17.0774,8.6982 17.2624,8.7912 C17.4484,8.8852 17.6144,8.9902 17.7604,9.1082 L17.2884,9.8782 C17.2324,9.9562 17.1724,10.0152 17.1104,10.0542 C17.0484,10.0942 16.9694,10.1142 16.8724,10.1142 C16.7854,10.1142 16.6934,10.0902 16.5934,10.0422 C16.4944,9.9952 16.3814,9.9422 16.2564,9.8832 C16.1304,9.8242 15.9874,9.7712 15.8264,9.7232 C15.8244,9.7232 15.8204,9.7232 15.8184,9.7222 L15.8184,11.3072 C15.8944,11.3292 15.9684,11.3482 16.0454,11.3722 C16.2744,11.4422 16.4984,11.5252 16.7174,11.6192 C16.9364,11.7152 17.1314,11.8352 17.3014,11.9832 C17.4724,12.1302 17.6104,12.3092 17.7154,12.5202 C17.8204,12.7312 17.8724,12.9852 17.8724,13.2822 C17.8724,13.6132 17.8074,13.9222 17.6754,14.2102 L17.6754,14.2102 Z M10.9614,15.6712 C10.6754,15.6712 10.4704,15.5632 10.3464,15.3482 L9.1274,13.2172 C9.0734,13.1232 9.0104,13.0552 8.9384,13.0152 C8.8654,12.9752 8.7644,12.9552 8.6334,12.9552 L8.1994,12.9552 L8.1994,15.6712 L6.4964,15.6712 L6.4964,8.3292 L8.8854,8.3292 C9.4164,8.3292 9.8684,8.3842 10.2434,8.4922 C10.6174,8.6022 10.9234,8.7542 11.1604,8.9492 C11.3974,9.1432 11.5694,9.3742 11.6764,9.6392 C11.7844,9.9042 11.8384,10.1932 11.8384,10.5062 C11.8384,10.7442 11.8064,10.9692 11.7424,11.1812 C11.6784,11.3922 11.5844,11.5882 11.4574,11.7682 C11.3324,11.9482 11.1774,12.1082 10.9944,12.2492 C10.8114,12.3902 10.6004,12.5062 10.3614,12.5972 C10.4764,12.6542 10.5824,12.7242 10.6814,12.8082 C10.7804,12.8922 10.8674,12.9952 10.9414,13.1162 L12.5034,15.6712 L10.9614,15.6712 Z M12.0004,2.0002 C6.4774,2.0002 2.0004,6.4772 2.0004,12.0002 C2.0004,17.5232 6.4774,22.0002 12.0004,22.0002 C17.5234,22.0002 22.0004,17.5232 22.0004,12.0002 C22.0004,6.4772 17.5234,2.0002 12.0004,2.0002 L12.0004,2.0002 Z" id="path-1"></path>
</svg>